<svg width="21" height="20" viewBox="0 0 21 20" fill="none" xmlns="http://www.w3.org/2000/svg">
<path fill-rule="evenodd" clip-rule="evenodd" d="M20.1644 16.8713L16.8269 13.5958C17.7019 12.2637 18.2144 10.6871 18.2144 9.00049C18.2144 4.2707 14.3019 0.445312 9.46436 0.445312C4.62686 0.445312 0.714355 4.2707 0.714355 9.00049C0.714355 13.7303 4.62686 17.5557 9.46436 17.5557C11.2019 17.5557 12.8144 17.0424 14.1644 16.1991L17.5144 19.4622C17.8519 19.7922 18.3269 20 18.8394 20C19.8769 20 20.7144 19.1811 20.7144 18.1667C20.7144 17.6657 20.5019 17.2012 20.1644 16.8713ZM9.46436 15.1121C6.01436 15.1121 3.21436 12.3744 3.21436 9.00124C3.21436 5.62806 6.01436 2.8904 9.46436 2.8904C12.9144 2.8904 15.7144 5.62806 15.7144 9.00124C15.7144 12.3744 12.9144 15.1121 9.46436 15.1121Z" fill="url(#paint0_linear_880_109888)"/>
<defs>
<linearGradient id="paint0_linear_880_109888" x1="-2.65521" y1="10.2227" x2="20.7242" y2="10.4765" gradientUnits="userSpaceOnUse">
<stop stop-color="#0081FF"/>
<stop offset="0.59375" stop-color="#45A3FF"/>
</linearGradient>
</defs>
</svg>
